<svg xmlns="http://www.w3.org/2000/svg" xmlns:xlink="http://www.w3.org/1999/xlink" width="1920" zoomAndPan="magnify" viewBox="0 0 1440 1439.999935" height="1920" preserveAspectRatio="xMidYMid meet" version="1.0"><defs><g/><clipPath id="6159a2c15d"><rect x="0" width="1440" y="0" height="1440"/></clipPath></defs><rect x="-144" width="1728" fill="#ffffff" y="-143.999994" height="1727.999922" fill-opacity="1"/><rect x="-144" width="1728" fill="#000000" y="-143.999994" height="1727.999922" fill-opacity="1"/><g transform="matrix(1, 0, 0, 1, 0, -0.000000000000101068)"><g clip-path="url(#6159a2c15d)"><g fill="#bc9c88" fill-opacity="0.302"><g transform="translate(-90.166013, 1113.62622)"><g><path d="M 632.671875 -773.375 C 656.859375 -743.882812 675.441406 -710.554688 688.421875 -673.390625 C 700.804688 -635.640625 707 -596.113281 707 -554.8125 C 707 -514.113281 700.804688 -475.179688 688.421875 -438.015625 C 675.441406 -400.847656 656.859375 -367.515625 632.671875 -338.015625 C 604.359375 -303.804688 570.4375 -277.851562 530.90625 -260.15625 C 491.394531 -241.863281 448.335938 -232.71875 401.734375 -232.71875 L 343.328125 -232.71875 C 333.890625 -232.71875 325.925781 -229.472656 319.4375 -222.984375 C 312.945312 -216.492188 309.703125 -208.53125 309.703125 -199.09375 L 309.703125 -69.90625 C 309.703125 -52.207031 316.191406 -36.28125 329.171875 -22.125 C 332.710938 -17.40625 333.597656 -12.6875 331.828125 -7.96875 C 329.460938 -2.65625 325.332031 0 319.4375 0 L 119.453125 0 C 113.554688 0 109.425781 -2.65625 107.0625 -7.96875 C 104.707031 -12.6875 105.59375 -17.40625 109.71875 -22.125 C 126.238281 -39.820312 134.5 -60.765625 134.5 -84.953125 L 134.5 -794.625 C 134.5 -818.800781 126.238281 -839.738281 109.71875 -857.4375 C 105.59375 -862.15625 104.707031 -867.171875 107.0625 -872.484375 C 109.425781 -877.203125 113.554688 -879.5625 119.453125 -879.5625 L 401.734375 -879.5625 C 448.335938 -879.5625 491.394531 -870.421875 530.90625 -852.140625 C 570.4375 -833.847656 604.359375 -807.59375 632.671875 -773.375 Z M 497.296875 -449.515625 C 508.492188 -463.085938 517.046875 -479.015625 522.953125 -497.296875 C 528.847656 -514.992188 531.796875 -534.164062 531.796875 -554.8125 C 531.796875 -558.945312 530.910156 -568.976562 529.140625 -584.90625 C 527.367188 -600.832031 522.351562 -617.644531 514.09375 -635.34375 C 505.84375 -653.039062 493.164062 -668.96875 476.0625 -683.125 C 458.363281 -697.28125 433.585938 -704.359375 401.734375 -704.359375 L 334.484375 -704.359375 C 327.992188 -704.359375 322.390625 -702 317.671875 -697.28125 C 312.359375 -691.96875 309.703125 -686.066406 309.703125 -679.578125 L 309.703125 -431.8125 C 309.703125 -425.320312 312.359375 -419.71875 317.671875 -415 C 322.390625 -410.28125 327.992188 -407.921875 334.484375 -407.921875 L 401.734375 -407.921875 C 443.617188 -407.921875 475.472656 -421.785156 497.296875 -449.515625 Z M 497.296875 -449.515625 "/></g></g></g><g fill="#bc9c88" fill-opacity="0.302"><g transform="translate(688.528153, 1113.62622)"><g><path d="M 643.28125 -900.796875 C 648.007812 -903.753906 653.023438 -904.050781 658.328125 -901.6875 C 663.046875 -899.320312 665.40625 -895.191406 665.40625 -889.296875 L 665.40625 -693.734375 C 665.40625 -687.835938 663.046875 -683.710938 658.328125 -681.359375 C 653.023438 -678.992188 648.007812 -679.285156 643.28125 -682.234375 C 627.945312 -696.390625 609.660156 -703.46875 588.421875 -703.46875 L 324.75 -703.46875 C 319.4375 -703.46875 315.007812 -701.703125 311.46875 -698.171875 C 307.9375 -694.628906 306.171875 -690.203125 306.171875 -684.890625 L 306.171875 -545.96875 C 306.171875 -540.65625 307.9375 -536.226562 311.46875 -532.6875 C 315.007812 -529.15625 319.4375 -527.390625 324.75 -527.390625 L 407.046875 -527.390625 C 428.273438 -527.390625 446.5625 -534.46875 461.90625 -548.625 C 466.625 -552.164062 471.640625 -552.753906 476.953125 -550.390625 C 481.671875 -547.441406 484.03125 -543.019531 484.03125 -537.125 L 484.03125 -341.5625 C 484.03125 -335.664062 481.671875 -331.535156 476.953125 -329.171875 C 471.640625 -326.816406 466.625 -327.113281 461.90625 -330.0625 L 461.015625 -330.0625 C 446.265625 -344.8125 428.273438 -352.1875 407.046875 -352.1875 L 324.75 -352.1875 C 319.4375 -352.1875 315.007812 -350.414062 311.46875 -346.875 C 307.9375 -342.738281 306.171875 -338.3125 306.171875 -333.59375 L 306.171875 -76.09375 C 306.171875 -55.445312 313.25 -37.160156 327.40625 -21.234375 C 330.351562 -16.515625 330.644531 -11.796875 328.28125 -7.078125 C 325.925781 -2.359375 321.800781 0 315.90625 0 L 120.34375 0 C 114.445312 0 110.316406 -2.359375 107.953125 -7.078125 C 105.597656 -11.796875 105.894531 -16.515625 108.84375 -21.234375 L 109.71875 -22.125 C 123.882812 -38.050781 130.96875 -56.335938 130.96875 -76.984375 L 130.96875 -801.703125 C 130.96875 -822.347656 123.882812 -840.632812 109.71875 -856.5625 L 108.84375 -857.4375 C 105.894531 -862.15625 105.597656 -867.171875 107.953125 -872.484375 C 110.316406 -877.203125 114.445312 -879.5625 120.34375 -879.5625 L 588.421875 -879.5625 C 609.660156 -879.5625 627.945312 -886.640625 643.28125 -900.796875 Z M 643.28125 -900.796875 "/></g></g></g><g fill="#bc9c88" fill-opacity="0.502"><g transform="translate(-59.620855, 1126.591874)"><g><path d="M 632.671875 -773.375 C 656.859375 -743.882812 675.441406 -710.554688 688.421875 -673.390625 C 700.804688 -635.640625 707 -596.113281 707 -554.8125 C 707 -514.113281 700.804688 -475.179688 688.421875 -438.015625 C 675.441406 -400.847656 656.859375 -367.515625 632.671875 -338.015625 C 604.359375 -303.804688 570.4375 -277.851562 530.90625 -260.15625 C 491.394531 -241.863281 448.335938 -232.71875 401.734375 -232.71875 L 343.328125 -232.71875 C 333.890625 -232.71875 325.925781 -229.472656 319.4375 -222.984375 C 312.945312 -216.492188 309.703125 -208.53125 309.703125 -199.09375 L 309.703125 -69.90625 C 309.703125 -52.207031 316.191406 -36.28125 329.171875 -22.125 C 332.710938 -17.40625 333.597656 -12.6875 331.828125 -7.96875 C 329.460938 -2.65625 325.332031 0 319.4375 0 L 119.453125 0 C 113.554688 0 109.425781 -2.65625 107.0625 -7.96875 C 104.707031 -12.6875 105.59375 -17.40625 109.71875 -22.125 C 126.238281 -39.820312 134.5 -60.765625 134.5 -84.953125 L 134.5 -794.625 C 134.5 -818.800781 126.238281 -839.738281 109.71875 -857.4375 C 105.59375 -862.15625 104.707031 -867.171875 107.0625 -872.484375 C 109.425781 -877.203125 113.554688 -879.5625 119.453125 -879.5625 L 401.734375 -879.5625 C 448.335938 -879.5625 491.394531 -870.421875 530.90625 -852.140625 C 570.4375 -833.847656 604.359375 -807.59375 632.671875 -773.375 Z M 497.296875 -449.515625 C 508.492188 -463.085938 517.046875 -479.015625 522.953125 -497.296875 C 528.847656 -514.992188 531.796875 -534.164062 531.796875 -554.8125 C 531.796875 -558.945312 530.910156 -568.976562 529.140625 -584.90625 C 527.367188 -600.832031 522.351562 -617.644531 514.09375 -635.34375 C 505.84375 -653.039062 493.164062 -668.96875 476.0625 -683.125 C 458.363281 -697.28125 433.585938 -704.359375 401.734375 -704.359375 L 334.484375 -704.359375 C 327.992188 -704.359375 322.390625 -702 317.671875 -697.28125 C 312.359375 -691.96875 309.703125 -686.066406 309.703125 -679.578125 L 309.703125 -431.8125 C 309.703125 -425.320312 312.359375 -419.71875 317.671875 -415 C 322.390625 -410.28125 327.992188 -407.921875 334.484375 -407.921875 L 401.734375 -407.921875 C 443.617188 -407.921875 475.472656 -421.785156 497.296875 -449.515625 Z M 497.296875 -449.515625 "/></g></g></g><g fill="#bc9c88" fill-opacity="0.502"><g transform="translate(719.07331, 1126.591874)"><g><path d="M 643.28125 -900.796875 C 648.007812 -903.753906 653.023438 -904.050781 658.328125 -901.6875 C 663.046875 -899.320312 665.40625 -895.191406 665.40625 -889.296875 L 665.40625 -693.734375 C 665.40625 -687.835938 663.046875 -683.710938 658.328125 -681.359375 C 653.023438 -678.992188 648.007812 -679.285156 643.28125 -682.234375 C 627.945312 -696.390625 609.660156 -703.46875 588.421875 -703.46875 L 324.75 -703.46875 C 319.4375 -703.46875 315.007812 -701.703125 311.46875 -698.171875 C 307.9375 -694.628906 306.171875 -690.203125 306.171875 -684.890625 L 306.171875 -545.96875 C 306.171875 -540.65625 307.9375 -536.226562 311.46875 -532.6875 C 315.007812 -529.15625 319.4375 -527.390625 324.75 -527.390625 L 407.046875 -527.390625 C 428.273438 -527.390625 446.5625 -534.46875 461.90625 -548.625 C 466.625 -552.164062 471.640625 -552.753906 476.953125 -550.390625 C 481.671875 -547.441406 484.03125 -543.019531 484.03125 -537.125 L 484.03125 -341.5625 C 484.03125 -335.664062 481.671875 -331.535156 476.953125 -329.171875 C 471.640625 -326.816406 466.625 -327.113281 461.90625 -330.0625 L 461.015625 -330.0625 C 446.265625 -344.8125 428.273438 -352.1875 407.046875 -352.1875 L 324.75 -352.1875 C 319.4375 -352.1875 315.007812 -350.414062 311.46875 -346.875 C 307.9375 -342.738281 306.171875 -338.3125 306.171875 -333.59375 L 306.171875 -76.09375 C 306.171875 -55.445312 313.25 -37.160156 327.40625 -21.234375 C 330.351562 -16.515625 330.644531 -11.796875 328.28125 -7.078125 C 325.925781 -2.359375 321.800781 0 315.90625 0 L 120.34375 0 C 114.445312 0 110.316406 -2.359375 107.953125 -7.078125 C 105.597656 -11.796875 105.894531 -16.515625 108.84375 -21.234375 L 109.71875 -22.125 C 123.882812 -38.050781 130.96875 -56.335938 130.96875 -76.984375 L 130.96875 -801.703125 C 130.96875 -822.347656 123.882812 -840.632812 109.71875 -856.5625 L 108.84375 -857.4375 C 105.894531 -862.15625 105.597656 -867.171875 107.953125 -872.484375 C 110.316406 -877.203125 114.445312 -879.5625 120.34375 -879.5625 L 588.421875 -879.5625 C 609.660156 -879.5625 627.945312 -886.640625 643.28125 -900.796875 Z M 643.28125 -900.796875 "/></g></g></g><g fill="#bc9c88" fill-opacity="0.302"><g transform="translate(1407.944875, 1113.62622)"><g/></g></g><g fill="#bc9c88" fill-opacity="0.502"><g transform="translate(1438.490032, 1126.591874)"><g/></g></g><g fill="#ebdad2" fill-opacity="1"><g transform="translate(-29.075698, 1139.557527)"><g><path d="M 632.671875 -773.375 C 656.859375 -743.882812 675.441406 -710.554688 688.421875 -673.390625 C 700.804688 -635.640625 707 -596.113281 707 -554.8125 C 707 -514.113281 700.804688 -475.179688 688.421875 -438.015625 C 675.441406 -400.847656 656.859375 -367.515625 632.671875 -338.015625 C 604.359375 -303.804688 570.4375 -277.851562 530.90625 -260.15625 C 491.394531 -241.863281 448.335938 -232.71875 401.734375 -232.71875 L 343.328125 -232.71875 C 333.890625 -232.71875 325.925781 -229.472656 319.4375 -222.984375 C 312.945312 -216.492188 309.703125 -208.53125 309.703125 -199.09375 L 309.703125 -69.90625 C 309.703125 -52.207031 316.191406 -36.28125 329.171875 -22.125 C 332.710938 -17.40625 333.597656 -12.6875 331.828125 -7.96875 C 329.460938 -2.65625 325.332031 0 319.4375 0 L 119.453125 0 C 113.554688 0 109.425781 -2.65625 107.0625 -7.96875 C 104.707031 -12.6875 105.59375 -17.40625 109.71875 -22.125 C 126.238281 -39.820312 134.5 -60.765625 134.5 -84.953125 L 134.5 -794.625 C 134.5 -818.800781 126.238281 -839.738281 109.71875 -857.4375 C 105.59375 -862.15625 104.707031 -867.171875 107.0625 -872.484375 C 109.425781 -877.203125 113.554688 -879.5625 119.453125 -879.5625 L 401.734375 -879.5625 C 448.335938 -879.5625 491.394531 -870.421875 530.90625 -852.140625 C 570.4375 -833.847656 604.359375 -807.59375 632.671875 -773.375 Z M 497.296875 -449.515625 C 508.492188 -463.085938 517.046875 -479.015625 522.953125 -497.296875 C 528.847656 -514.992188 531.796875 -534.164062 531.796875 -554.8125 C 531.796875 -558.945312 530.910156 -568.976562 529.140625 -584.90625 C 527.367188 -600.832031 522.351562 -617.644531 514.09375 -635.34375 C 505.84375 -653.039062 493.164062 -668.96875 476.0625 -683.125 C 458.363281 -697.28125 433.585938 -704.359375 401.734375 -704.359375 L 334.484375 -704.359375 C 327.992188 -704.359375 322.390625 -702 317.671875 -697.28125 C 312.359375 -691.96875 309.703125 -686.066406 309.703125 -679.578125 L 309.703125 -431.8125 C 309.703125 -425.320312 312.359375 -419.71875 317.671875 -415 C 322.390625 -410.28125 327.992188 -407.921875 334.484375 -407.921875 L 401.734375 -407.921875 C 443.617188 -407.921875 475.472656 -421.785156 497.296875 -449.515625 Z M 497.296875 -449.515625 "/></g></g></g><g fill="#ebdad2" fill-opacity="1"><g transform="translate(749.618468, 1139.557527)"><g><path d="M 643.28125 -900.796875 C 648.007812 -903.753906 653.023438 -904.050781 658.328125 -901.6875 C 663.046875 -899.320312 665.40625 -895.191406 665.40625 -889.296875 L 665.40625 -693.734375 C 665.40625 -687.835938 663.046875 -683.710938 658.328125 -681.359375 C 653.023438 -678.992188 648.007812 -679.285156 643.28125 -682.234375 C 627.945312 -696.390625 609.660156 -703.46875 588.421875 -703.46875 L 324.75 -703.46875 C 319.4375 -703.46875 315.007812 -701.703125 311.46875 -698.171875 C 307.9375 -694.628906 306.171875 -690.203125 306.171875 -684.890625 L 306.171875 -545.96875 C 306.171875 -540.65625 307.9375 -536.226562 311.46875 -532.6875 C 315.007812 -529.15625 319.4375 -527.390625 324.75 -527.390625 L 407.046875 -527.390625 C 428.273438 -527.390625 446.5625 -534.46875 461.90625 -548.625 C 466.625 -552.164062 471.640625 -552.753906 476.953125 -550.390625 C 481.671875 -547.441406 484.03125 -543.019531 484.03125 -537.125 L 484.03125 -341.5625 C 484.03125 -335.664062 481.671875 -331.535156 476.953125 -329.171875 C 471.640625 -326.816406 466.625 -327.113281 461.90625 -330.0625 L 461.015625 -330.0625 C 446.265625 -344.8125 428.273438 -352.1875 407.046875 -352.1875 L 324.75 -352.1875 C 319.4375 -352.1875 315.007812 -350.414062 311.46875 -346.875 C 307.9375 -342.738281 306.171875 -338.3125 306.171875 -333.59375 L 306.171875 -76.09375 C 306.171875 -55.445312 313.25 -37.160156 327.40625 -21.234375 C 330.351562 -16.515625 330.644531 -11.796875 328.28125 -7.078125 C 325.925781 -2.359375 321.800781 0 315.90625 0 L 120.34375 0 C 114.445312 0 110.316406 -2.359375 107.953125 -7.078125 C 105.597656 -11.796875 105.894531 -16.515625 108.84375 -21.234375 L 109.71875 -22.125 C 123.882812 -38.050781 130.96875 -56.335938 130.96875 -76.984375 L 130.96875 -801.703125 C 130.96875 -822.347656 123.882812 -840.632812 109.71875 -856.5625 L 108.84375 -857.4375 C 105.894531 -862.15625 105.597656 -867.171875 107.953125 -872.484375 C 110.316406 -877.203125 114.445312 -879.5625 120.34375 -879.5625 L 588.421875 -879.5625 C 609.660156 -879.5625 627.945312 -886.640625 643.28125 -900.796875 Z M 643.28125 -900.796875 "/></g></g></g></g></g></svg>